<svg height="16" width="16" xmlns="http://www.w3.org/2000/svg"><path d="m8 1a1 1 0 0 0 -1 1 1 1 0 0 0 .01.139 3.99 3.99 0 0 0 -2.994 4.191v3.236c0 .36-.034.69-.102.989a1.843 1.843 0 0 1 -.357.761 1.549 1.549 0 0 1 -.662.5c-.272.12-.611.177-1.018.18v.004h12.244v-.004c-.407-.003-.746-.06-1.017-.18a1.549 1.549 0 0 1 -.663-.5 1.84 1.84 0 0 1 -.355-.761 4.461 4.461 0 0 1 -.102-.989v-3.25c.01-.105.015-.21.016-.316a3.99 3.99 0 0 0 -3.012-3.861 1 1 0 0 0 .012-.139 1 1 0 0 0 -1-1zm0 2a3 3 0 0 1 3 3v5h-6v-5a3 3 0 0 1 3-3zm-3.908 8.717-.016.02.006-.012c.002-.003.008-.004.01-.008zm7.816 0c.002.003.008.004.01.008.003.003.004.008.006.012zm-5.908 1.283a2.023 2.023 0 0 0 4.047 0z" fill="#808080"/><path d="m12.066 12.314.01.009c.002.004.004.01.007.013zm-8.139.002-.018.023.008-.014.009-.009z"/></svg>